<?xml version="1.0" standalone="no"?>
<!DOCTYPE svg PUBLIC "-//W3C//DTD SVG 20010904//EN"
 "http://www.w3.org/TR/2001/REC-SVG-20010904/DTD/svg10.dtd">
<svg version="1.0" xmlns="http://www.w3.org/2000/svg"
 width="914.000000pt" height="980.000000pt" viewBox="0 0 914.000000 980.000000"
 preserveAspectRatio="xMidYMid meet">

<g transform="translate(0.000000,980.000000) scale(0.100000,-0.100000)"
fill="#C70101" stroke="none">
<path d="M2283 7527 l-2281 -2272 606 -607 c334 -335 610 -608 613 -608 4 0
757 747 1675 1660 918 913 1671 1660 1674 1660 3 0 756 -747 1674 -1660 918
-913 1671 -1660 1675 -1660 3 0 279 273 613 607 l606 608 -2283 2273 c-1256
1249 -2285 2272 -2287 2271 -2 0 -1030 -1023 -2285 -2272z"/>
<path d="M2286 3495 c-1252 -1246 -2277 -2267 -2279 -2269 -1 -2 271 -279 605
-615 l607 -611 1671 1662 c919 915 1675 1663 1680 1663 5 0 761 -748 1680
-1663 l1671 -1662 602 606 c331 333 603 610 605 614 3 9 -4545 4540 -4558
4540 -4 0 -1032 -1019 -2284 -2265z"/>
</g>
</svg>
